<?xml version="1.0" encoding="UTF-8" standalone="no"?>
<svg width="1200px" height="400px" viewBox="0 0 1200 400" version="1.1" xmlns="http://www.w3.org/2000/svg" xmlns:xlink="http://www.w3.org/1999/xlink" xmlns:sketch="http://www.bohemiancoding.com/sketch/ns">
    <!-- Generator: Sketch 3.5 (25232) - http://www.bohemiancoding.com/sketch -->
    <title>frame</title>
    <desc>Created with Sketch.</desc>
    <defs></defs>
    <g id="Page-1" stroke="none" stroke-width="1" fill="none" fill-rule="evenodd" sketch:type="MSPage">
        <circle id="ring" stroke="#4092B4" stroke-width="38" sketch:type="MSShapeGroup" cx="200" cy="200" r="160"></circle>
        <polygon id="flare" fill="#4092B4" sketch:type="MSShapeGroup" transform="translate(230.679279, 178.745970) rotate(-333.000000) translate(-230.679279, -178.745970) " points="230.679279 122.583116 284.093327 161.390694 263.690976 224.182674 197.667581 224.182674 177.26523 161.390694 "></polygon>
        <path d="M465.7,95 L414.7,95 L414.7,311 L465.7,311 L465.7,244.4 L475,244.4 L513.4,311 L572.5,311 L518.5,222.8 L565.3,152.3 L510.1,152.3 L478.6,203.3 L465.7,203.3 L465.7,95 Z M729.1,311 L729.1,152.3 L678.4,152.3 L678.4,261.5 C672.7,268.1 663.7,273.2 652.6,273.2 C638.8,273.2 634,264.2 634,248.3 L634,152.3 L582.7,152.3 L582.7,260.9 C582.7,295.1 598.6,314.9 634.3,314.9 C656.5,314.9 670.9,305.3 682.9,292.1 L688.3,311 L729.1,311 Z M903.7,311 L903.7,152.3 L853,152.3 L853,261.5 C847.3,268.1 838.3,273.2 827.2,273.2 C813.4,273.2 808.6,264.2 808.6,248.3 L808.6,152.3 L757.3,152.3 L757.3,260.9 C757.3,295.1 773.2,314.9 808.9,314.9 C831.1,314.9 845.5,305.3 857.5,292.1 L862.9,311 L903.7,311 Z M984.1,311 L984.1,95 L933.1,95 L933.1,311 L984.1,311 Z M1099,254.9 C1099,269 1089.1,280.1 1075.3,280.1 C1062.7,280.1 1056.7,274.4 1056.7,265.1 C1056.7,250.1 1069,246.2 1084.3,246.2 C1090.9,246.2 1094.2,246.8 1099,247.7 L1099,254.9 Z M1150,209 C1150,166.4 1126.6,148.7 1083.7,148.7 C1058.5,148.7 1033.9,157.4 1014.4,171.5 L1030.3,201.8 C1045.6,193.7 1058.8,188 1076.5,188 C1091.2,188 1099,195.2 1099,209.9 L1099,218.6 C1092.4,217.7 1086.7,217.4 1078.3,217.4 C1027,217.4 1006.6,240.2 1006.6,267.5 C1006.6,299.6 1027.6,314.9 1056.7,314.9 C1078,314.9 1094.5,306.5 1105,292.4 L1109.5,311 L1150,311 L1150,209 Z" id="kuula" fill="#4092B4" sketch:type="MSShapeGroup"></path>
    </g>
</svg>