<svg xmlns="http://www.w3.org/2000/svg" viewBox="0 0 1423.74 560.55"><defs><style>.cls-1{fill:#caac81;}</style></defs><g id="Layer_2" data-name="Layer 2"><g id="Layer_1-2" data-name="Layer 1"><path class="cls-1" d="M309.76,55.14v.21a55.11,55.11,0,0,0-55.14,55.14,55.11,55.11,0,0,0-55.14-55.14v-.21A55.11,55.11,0,0,0,254.62,0,55.11,55.11,0,0,0,309.76,55.14Z"/><path class="cls-1" d="M293.86,258H234.68L45.4,91.77V258h-43v-4c8.51-.33,30.4-7.61,30.4-16.86V80.2L0,51.45H64"/><path class="cls-1" d="M385.85,72.6c0-16.52-29.59-17.18-29.59-17.18v-4H629v43l-45.4-37H439.75v92.21h103l28-27.1v59.15l-28-24.79h-103v94.19h144.3l47-44.94V258H355.45v-4s30.4-1.65,30.4-16.86Z"/><path class="cls-1" d="M688.2,258v-4c0,.33,30.4-2.32,30.4-15.87V71.94c0-15.86-30.4-16.52-30.4-16.52v-4H848.7c136.19,0,133.76,83,58,101.13,100.92,8.59,97.68,105.42-43,105.42Zm83.9-107.07h82.69c54.71,0,75-93.86-20.27-93.86H772.1Zm71.74,101.12c93.23,0,91.6-94.84,14.59-94.84H772.1v94.84Z"/><path class="cls-1" d="M1212.26,50.46c-87.55,0-181.18,39.33-183.61,101.79-2,62.13,88.36,107.08,183.2,107.08,91.2,0,182.4-41.31,184.42-101.79C1398.3,96.07,1307.1,50.46,1212.26,50.46ZM1329.4,223a222.7,222.7,0,0,1-85.12,16.52c-121.19,0-223.74-92.86-144.7-156.64,24.72-10.91,51.88-15.87,79-15.87C1294.94,67,1410.05,155.55,1329.4,223Z"/><path class="cls-1" d="M841.8,492.19s.19.68.54,2.05a6.39,6.39,0,0,1-3.85,3.22,5.25,5.25,0,0,1-3.54-.32l-.6-1.1-.53-.8c-.1-.39-.94-.38-2.5,0a28.88,28.88,0,0,0-4.33,1.46,23.8,23.8,0,0,0-5.62,3.68,28.91,28.91,0,0,0-6,6.93q-.87,1.49-2.67,4.16a24.47,24.47,0,0,0-2.73,5.12l-2.28,5.62-1,4.65q-.69,3.33-1,5.9c-.17,1.73-.29,3.22-.37,4.5a22,22,0,0,1-2.48,7.25,2.7,2.7,0,0,1-1.53,1.35c-1,.25-1.74-.27-2.31-1.59a9.27,9.27,0,0,1-1-2.57,9.17,9.17,0,0,1,0-4.71q2.42-7.53,3.47-10.65l2.34-6.58,1.39-6.64a62.71,62.71,0,0,0,2-12.48c.3-3.63,1.5-5.42,3.61-5.35,2.31,0,3.47.46,3.48,1.28l0,1.26a7.18,7.18,0,0,1-.18,2.87,41.21,41.21,0,0,1,3.62-4.1,36.69,36.69,0,0,1,6.48-5.17,22.25,22.25,0,0,1,5.93-2.51q3.81-1,5.52-.51a14.77,14.77,0,0,1,4.3,2Z"/><path class="cls-1" d="M899.79,489.42s.23.88.7,2.64a4.43,4.43,0,0,1,0,2.5l-5.25,3.9L887,503.8,876.29,511a60.35,60.35,0,0,1-10.74,5.66,14.64,14.64,0,0,1-3.15,1.14,10.11,10.11,0,0,1-5.67-.06,12.73,12.73,0,0,1-5.28-3.32c-2-2.18-2.84-4.06-2.43-5.64l.14-.66a2.11,2.11,0,0,1-1-1.32c-.2-.77.13-1.91,1-3.39l.2-1.63a22,22,0,0,1,2-6.8q.78-1.77,1.32-3.33a16.45,16.45,0,0,1,1.39-3,10.15,10.15,0,0,1,4.22-4.26,4.41,4.41,0,0,1,1.68-.76,7.49,7.49,0,0,1,3.46,0,6.34,6.34,0,0,1,4.31,3.25l.84,2a7.49,7.49,0,0,1,0,3.46,17.69,17.69,0,0,1-2.06,5.26,24.08,24.08,0,0,1-3.26,4.31,38.71,38.71,0,0,1-4.29,4l-3.43,2.48a3.85,3.85,0,0,0,1.13,1.9l1.94,1.37a4.42,4.42,0,0,0,2.17-.11c1.2-.2,2.28-.44,3.26-.7l2.06-.54a28.67,28.67,0,0,0,7.9-3.35c1.08-.7,2.52-1.55,4.35-2.56a57.81,57.81,0,0,0,6.17-4,90.46,90.46,0,0,0,7.51-6.06l4.21-4.25Zm-41.5,8.14a4.65,4.65,0,0,0,2.32-3.12,13.4,13.4,0,0,0,.77-3l-1.45,1.64a12.7,12.7,0,0,0-1.45,1.64,10.51,10.51,0,0,0-1.51,2.59l-.71,2.07Z"/><path class="cls-1" d="M936.7,480.61s.1.39.31,1.17-.44,1.9-1.94,3.34c-2.55.67-5.66,2.33-9.36,5A59.68,59.68,0,0,0,915,500.78a63.27,63.27,0,0,0-5.51,6.47,9.91,9.91,0,0,1,1.21,2.2,23.84,23.84,0,0,1,3,8.94,17.67,17.67,0,0,1-.78,7.74,29.61,29.61,0,0,1-2.85,7,24,24,0,0,1-5.66,5.9,7.66,7.66,0,0,1-3,1.73,5.68,5.68,0,0,1-3.83-.24,8.7,8.7,0,0,1-4.86-5.31q-1.25-4.69,1.55-10.77a103.65,103.65,0,0,1,7.27-12.91l2.52-3.5-2.41-4.38a77,77,0,0,1-5.11-7.44,13,13,0,0,1-2-4.17,9.54,9.54,0,0,1-.11-2.8,27,27,0,0,1,.8-6.49,36.05,36.05,0,0,1,2.49-6,12.75,12.75,0,0,1,3.76-4.76,10.39,10.39,0,0,1,4.68-2.49,5.49,5.49,0,0,1,4.75,2.51,7.84,7.84,0,0,1,.91,2.27,5.83,5.83,0,0,1-.1,3.17l-2.14,5-2.73,5.12-2.16,3.71L902.86,494l-.58.15L906,501l1.65,2.7,4.49-5.58A133.06,133.06,0,0,1,923.31,487a54.75,54.75,0,0,1,9.93-6.39Zm-28.61,35.5a24.87,24.87,0,0,0-1.75-4.25A8.56,8.56,0,0,0,905,513.8,39.94,39.94,0,0,0,899.39,526c-.93,3.59-1.25,6-.93,7.15a1.26,1.26,0,0,1,.52.8,1.18,1.18,0,0,0,.53.8c.35.54,1.16.43,2.42-.32a26.16,26.16,0,0,0,3-4.24l2.57-5.7a32.44,32.44,0,0,0,.95-5.9Z"/><path class="cls-1" d="M1078.27,353.39l2.4,3.14q-1.73,3-3.15,1.14l.08.3c.26,1-.57,1.4-2.49,1.28-6.86,1-10,1.38-9.41,1.23a93.88,93.88,0,0,0-14,2.77q-5.65,1.19-18.86,4.66a84,84,0,0,0-8.26,2c-2.51.78-4.65,1.39-6.41,1.85l-9.39,2.49Q989.55,380,980.6,383l-6.09,1.93q-2.28,5.63-3.34,8.73a102.28,102.28,0,0,0-4.33,12.13l-.29.08q-2.62,1.95-4.4,1.16L954,428.61q-2.91,8-9.78,28.33-3.39,10.95-6.33,22.4l-1.83,6.13q-3.06,13.38-5.61,26.29-1.68,11.44-2.8,21.46-1.26,10.69-.47,14.88l.62,2.35a11.68,11.68,0,0,0,1.23,3.44,2.5,2.5,0,0,0,2.58.26A35.38,35.38,0,0,0,938,550.9a64.11,64.11,0,0,0,10.48-9,186.16,186.16,0,0,0,12.25-14.23Q965.32,522.34,974,510q7.17-9.74,12.57-17.77l10.32-15.6c2-2.82,3.54-5.22,4.69-7.21s2.19-3.6,3.1-4.89l.22-.37-.08-.3a1.28,1.28,0,0,0,.81-.52,3.06,3.06,0,0,1,3-1.74c.64,0,1,.26,1.11.65.3.34.29,1.08,0,2.21a12.58,12.58,0,0,1-2.24,3.42l-.87,1.48-2.3,3.12-.43.74L1000,479l-10.69,15.38L977,512l-13.16,17.92q-7.68,10.18-12.31,15.19a63.75,63.75,0,0,1-10.18,10.22,19.7,19.7,0,0,1-8.47,4.75l-.59.15c-2.94.78-5.22,0-6.88-2.26a11.65,11.65,0,0,1-1.67-4,17.07,17.07,0,0,1-.73-5.15,150,150,0,0,1,1.11-16q2.7-18.3,3.39-21.62,1.31-6.93,5.9-26.36,2.71-12.33,8.09-28.82l9.7-28.63,8.73-24,.22-.37-.08-.3,1.87-3.62q2.12-6.22,4.48-11.56l-13.27,4.45-22.56,8.48a147.89,147.89,0,0,0-16,7.06,12.5,12.5,0,0,1,1,3.82,3.92,3.92,0,0,0-.36,1,1.9,1.9,0,0,1-.64,1.12l-.88.23A2.37,2.37,0,0,1,911,413a105.11,105.11,0,0,0-11.13,4.2,40,40,0,0,0-5.57,2.73,6.1,6.1,0,0,1-4.12-.17.54.54,0,0,1-.74-.43l-.29.08a2.63,2.63,0,0,1-1.35-1.53,2.55,2.55,0,0,1,.92-2.44c1.31-1.39,4-3,8.19-4.68l9.58-4.1,3.3-1.81a3.19,3.19,0,0,1,1.83-.18q10.7-4.71,17.87-7.23l22.72-7.89q2.56-1,6.45-2.33c2.59-.89,5.64-1.81,9.17-2.74a24.77,24.77,0,0,0,2.28-5.63l7.5-16.74,6-11.93q2.93-6.74,3.06-7.4c.19-.89.57-1.41,1.16-1.56a3.64,3.64,0,0,1,2.79-.12,1.22,1.22,0,0,1,1.2,1,1.38,1.38,0,0,1,1.69.49,4.37,4.37,0,0,1,1.58,2.41,8.07,8.07,0,0,1-1.29,2.23,39,39,0,0,0-5,6l-.43.75q-4.09,8.3-8.59,18.59-2.22,4.68-3.85,9.18l4.11-1.08q8.94-3,28.15-8.7,18-5.39,23.91-6.95l18.71-5.25q5.64-1.19,14.16-3.44a96,96,0,0,1,9.84-2Z"/><path class="cls-1" d="M1063.09,445.63l.47,1.76a4.22,4.22,0,0,1-.77,3l-6.21,3.83-8.17,5.93c-5.15,3.46-8.2,5.42-9.12,5.87a12,12,0,0,1-3.58,1.89,14,14,0,0,1-5,.06q-4.8-1.54-5.72-3.82a7.21,7.21,0,0,1-1.66-2.7,20,20,0,0,0-3.47,4.68q-2.24,3.42-4.75,8.17l-4.67,8.45a6.54,6.54,0,0,1-6.28,3.55q-4.5-.39-4.4-3.55a32.38,32.38,0,0,1,.57-7.37q.27-1.34,2.75-8.58l4.46-8.09a12.25,12.25,0,0,1,5.53-5.22l1.47-.39c1.76-.47,3-.26,3.61.61.3.35.66.72,1.08,1.13s.79.79,1.09,1.13a8.55,8.55,0,0,1,4.24-1.75,4,4,0,0,1,4.67,2.22l1.67,3.95a2.63,2.63,0,0,0,1.72,1.74,17.61,17.61,0,0,0,4.7-1.24l8.18-4.67a76.34,76.34,0,0,0,8.17-5.93l6-4.72Zm-47.47,17.57,1.72-3-1.77-.79a.54.54,0,0,1-.43.74q-.75-.44-2.77,2.61a17.44,17.44,0,0,0-4.26,6.47,29.14,29.14,0,0,0-2.48,7.24l0,1.26c1.75-2.14,3.38-4.24,4.92-6.33Z"/><path class="cls-1" d="M1111.14,432.61q4.41-1.16,4.77,3.77a30,30,0,0,1-3.11,4.9q-.51.45-6,6a32.72,32.72,0,0,1-7.12,7.53,24.81,24.81,0,0,1-9.06,4.91q-4.7,1.24-7.25-2.48a13.4,13.4,0,0,1-1.92-6.08l-4.06,4.84c-4.35,4.92-7.19,8.07-8.49,9.46a8.61,8.61,0,0,1-4,2.63,4.65,4.65,0,0,1-3.62-.61,8,8,0,0,1-3-4.23,9.54,9.54,0,0,1-.11-2.8l.41-2q-1.77-.78-2.2-4.76l2.81-4.82a35.41,35.41,0,0,1,3.08-6.16l.14-.66.28-1.33a6.36,6.36,0,0,1,3.25-4.31,1.69,1.69,0,0,1,2.14-.25c2.35.21,3.13,1.16,2.32,2.84l.15.59a6.68,6.68,0,0,1-.53,3.9,64.71,64.71,0,0,0-4.52,9,25.84,25.84,0,0,0-1.74,7.68l1.39-.68a42,42,0,0,0,8.52-7q5.8-6.56,8.34-10.06l.51-.44.78-1.78,2.19-7.17a2.61,2.61,0,0,1,1.53-1.35,4.14,4.14,0,0,1,3.4,1c2.42,1.24,3.12,2.73,2.12,4.46.65.88.71,1.49.17,1.84-.73.4-1.75,1.72-3,3.94a14.39,14.39,0,0,0-2.13,6.21c-.26,2.17-.25,3.42.05,3.76.16.58,1,.67,2.58.26a18.22,18.22,0,0,0,5.7-3.39,42.14,42.14,0,0,0,6.92-5.91l2.31-3.13a37.3,37.3,0,0,0,2.24-3.41,22.83,22.83,0,0,1,2.88-4.53Z"/><path class="cls-1" d="M1149.06,411l.54,2a6.36,6.36,0,0,1-3.85,3.22,5.25,5.25,0,0,1-3.54-.32l-.6-1.1-.53-.8c-.11-.39-.94-.38-2.5,0a28.88,28.88,0,0,0-4.33,1.46,23.8,23.8,0,0,0-5.62,3.68,28.91,28.91,0,0,0-6,6.93c-.58,1-1.48,2.38-2.67,4.16a25,25,0,0,0-2.74,5.12l-2.27,5.62-1,4.65q-.69,3.33-1,5.91c-.17,1.72-.29,3.22-.38,4.49a21.62,21.62,0,0,1-2.48,7.25,2.66,2.66,0,0,1-1.52,1.35q-1.47.39-2.31-1.59a10.13,10.13,0,0,1-1-7.28q2.42-7.53,3.47-10.65l2.34-6.58,1.38-6.65a61.69,61.69,0,0,0,2-12.47c.3-3.63,1.5-5.42,3.61-5.35q3.46,0,3.48,1.29l0,1.25a7.18,7.18,0,0,1-.18,2.87,42.57,42.57,0,0,1,3.62-4.1,36.69,36.69,0,0,1,6.48-5.17,22.25,22.25,0,0,1,5.93-2.51q3.81-1,5.52-.51a14.65,14.65,0,0,1,4.3,2Z"/><path class="cls-1" d="M1213.93,405.76l.46,1.76a4.2,4.2,0,0,1-.76,3l-6.21,3.84-8.17,5.93c-5.15,3.46-8.2,5.41-9.12,5.86a12,12,0,0,1-3.58,1.89,13.91,13.91,0,0,1-5,.07c-3.21-1-5.11-2.31-5.72-3.83a7.13,7.13,0,0,1-1.66-2.7,19.93,19.93,0,0,0-3.47,4.69c-1.49,2.27-3.07,5-4.75,8.16l-4.67,8.45a6.53,6.53,0,0,1-6.28,3.55c-3-.25-4.47-1.44-4.4-3.55a32.42,32.42,0,0,1,.57-7.37q.27-1.32,2.75-8.58l4.46-8.08a12.22,12.22,0,0,1,5.53-5.23l1.46-.39c1.76-.47,3-.26,3.62.62.3.34.66.72,1.08,1.12s.79.79,1.09,1.13a8.59,8.59,0,0,1,4.24-1.75,4,4,0,0,1,4.67,2.22l1.67,3.95a2.59,2.59,0,0,0,1.72,1.74,17.12,17.12,0,0,0,4.7-1.24l8.18-4.67a75.34,75.34,0,0,0,8.17-5.93l6-4.72Zm-47.47,17.57,1.72-3-1.77-.79a.54.54,0,0,1-.44.74c-.49-.28-1.42.59-2.76,2.61a17.52,17.52,0,0,0-4.26,6.47,29.06,29.06,0,0,0-2.48,7.25l0,1.25c1.75-2.13,3.38-4.24,4.92-6.33Z"/><path class="cls-1" d="M1279.3,388.17l.54,2.06a10.73,10.73,0,0,1-.4,3.24,72.16,72.16,0,0,0-5.51,6.48,26.4,26.4,0,0,0-4.06,4.22q-2.25,2.79-3.7,4.43a53.39,53.39,0,0,1-7.76,8.64,29.42,29.42,0,0,1-8.38,6.3,10.71,10.71,0,0,1-3.88,2,10.23,10.23,0,0,1-4.71,0,11.34,11.34,0,0,1-7.13-4.4,18.09,18.09,0,0,1-2.35-5.34,14.52,14.52,0,0,1-.56-3.31l-.41-8.68-.15-5.3a19.21,19.21,0,0,1-1.37,1.93c-.63.79-1.5,1.86-2.61,3.2A175.71,175.71,0,0,0,1216.52,418a79.68,79.68,0,0,0-8.4,15.72,59,59,0,0,1-3.67,6.31l-1.66,2c-1.11,1.34-2,1.15-2.66-.55q-2.72.4-2.31-1.59a18.5,18.5,0,0,1,2.28-5.63,84.94,84.94,0,0,0,4.09-8.3l4.29-9.93,2.63-6.66,1-5.9a43.3,43.3,0,0,1,1.4-5.39,3.25,3.25,0,0,1,.79-1.78,2.36,2.36,0,0,1,1.82-1.43,7.77,7.77,0,0,1,3.46,0,3.16,3.16,0,0,1,2.28,5.06c-.43.73-1,1.71-1.58,2.92s-1.32,2.76-2.08,4.63l-.06,1c1.06-1.53,2.06-2.9,3-4.09s1.8-2.3,2.57-3.35q4.85-6.62,9.4-7.19t5,2.43a34.69,34.69,0,0,1,.13,4c0,1.48,0,2.73,0,3.76a42.62,42.62,0,0,0-.78,7.74,7.91,7.91,0,0,0,.33,2.43,10.41,10.41,0,0,0,1.44,3.07c1.39,1.31,2.41,2,3,2l5-1.31a18,18,0,0,0,7.45-5.11q6.88-7.15,7.32-7.9a48.31,48.31,0,0,0,7.39-8.86c1-1.09,1.93-2.24,2.87-3.43s1.89-2.33,2.86-3.42Z"/><path class="cls-1" d="M1421.34,262.72s.79,1,2.4,3.13c-1.16,2-2.21,2.36-3.15,1.15l.07.29c.26,1-.57,1.41-2.48,1.29-6.86,1-10,1.38-9.41,1.23a95.33,95.33,0,0,0-14,2.76q-5.65,1.2-18.86,4.67a83.75,83.75,0,0,0-8.25,2c-2.52.77-4.66,1.38-6.42,1.85l-9.39,2.48q-19.21,5.72-28.16,8.7l-6.08,1.92q-2.3,5.64-3.35,8.74-3.78,9.46-4.32,12.13l-.3.08c-1.75,1.3-3.22,1.68-4.4,1.16l-8.11,21.61q-2.91,8-9.78,28.33-3.37,11-6.32,22.4l-1.83,6.13q-3.06,13.36-5.62,26.29-1.66,11.43-2.8,21.46-1.24,10.69-.46,14.88l.62,2.35a12.27,12.27,0,0,0,1.22,3.44,2.52,2.52,0,0,0,2.58.26,35.76,35.76,0,0,0,6.36-3.25,63.7,63.7,0,0,0,10.48-9.05q6.4-6.71,12.26-14.23,4.56-5.28,13.24-17.63,7.15-9.72,12.57-17.76l10.32-15.6c2-2.83,3.53-5.22,4.69-7.21s2.18-3.61,3.1-4.9l.22-.37-.08-.29a1.26,1.26,0,0,0,.8-.52,3.08,3.08,0,0,1,3-1.74c.63,0,1,.26,1.11.65.29.34.28,1.07,0,2.21a12.35,12.35,0,0,1-2.23,3.41l-.87,1.49-2.31,3.12-.43.74-3.83,5.72-10.69,15.39-12.28,17.68-13.15,17.93q-7.68,10.19-12.32,15.18a63,63,0,0,1-10.17,10.23,19.61,19.61,0,0,1-8.48,4.74l-.58.16q-4.41,1.17-6.88-2.26a11.91,11.91,0,0,1-1.68-4,17.34,17.34,0,0,1-.73-5.14,152.72,152.72,0,0,1,1.11-16q2.71-18.3,3.4-21.62,1.29-6.94,5.9-26.36,2.7-12.33,8.08-28.83l9.7-28.62,8.74-24,.21-.36-.08-.3,1.87-3.63q2.13-6.21,4.49-11.55l-13.27,4.45-22.57,8.48a145,145,0,0,0-16,7.06,12.12,12.12,0,0,1,1,3.82,3.5,3.5,0,0,0-.35,1,2,2,0,0,1-.65,1.12l-.88.23a2.37,2.37,0,0,1-2.74-.85,28.32,28.32,0,0,0-4.32,1.46,29.7,29.7,0,0,0-6.81,2.74,40.54,40.54,0,0,0-5.56,2.72,6.13,6.13,0,0,1-4.13-.16.54.54,0,0,1-.74-.43l-.29.07a2.65,2.65,0,0,1-1.35-1.53,2.59,2.59,0,0,1,.93-2.44q2-2.08,8.18-4.67l9.59-4.11,3.29-1.81a3.18,3.18,0,0,1,1.84-.17q10.68-4.71,17.87-7.24l22.72-7.88q2.57-1,6.44-2.33c2.6-.89,5.65-1.81,9.17-2.74a25,25,0,0,0,2.28-5.63l7.51-16.74,5.95-11.93q2.92-6.74,3.07-7.41c.18-.88.56-1.4,1.15-1.56a3.66,3.66,0,0,1,2.8-.11,1.2,1.2,0,0,1,1.19.94,1.41,1.41,0,0,1,1.7.5,4.45,4.45,0,0,1,1.58,2.4,7.75,7.75,0,0,1-1.3,2.23,40.11,40.11,0,0,0-5,6l-.43.74q-4.08,8.31-8.58,18.6-2.24,4.67-3.86,9.18L1323,290q8.94-3,28.16-8.69,18-5.4,23.91-6.95l18.7-5.26q5.65-1.19,14.17-3.43a90.2,90.2,0,0,1,9.83-2Z"/><path class="cls-1" d="M820.69,344.46s.11.39.31,1.17-.43,1.9-1.94,3.34q-3.81,1-9.36,5A59.57,59.57,0,0,0,799,364.63a60.62,60.62,0,0,0-5.51,6.48,10.18,10.18,0,0,1,1.2,2.19,24,24,0,0,1,3,8.95,17.64,17.64,0,0,1-.78,7.73,29.87,29.87,0,0,1-2.85,7,23.74,23.74,0,0,1-5.66,5.89,7.42,7.42,0,0,1-3,1.73,5.62,5.62,0,0,1-3.83-.24,8.73,8.73,0,0,1-4.86-5.31q-1.23-4.68,1.55-10.77a106.27,106.27,0,0,1,7.27-12.91l2.53-3.49-2.42-4.39a76.28,76.28,0,0,1-5.1-7.44,13.21,13.21,0,0,1-2-4.17,9.83,9.83,0,0,1-.11-2.79,26.89,26.89,0,0,1,.8-6.49,35.68,35.68,0,0,1,2.49-6,12.76,12.76,0,0,1,3.77-4.76,10.19,10.19,0,0,1,4.68-2.49,5.44,5.44,0,0,1,4.74,2.51,8,8,0,0,1,.92,2.27,5.8,5.8,0,0,1-.11,3.16l-2.14,5-2.73,5.12-2.16,3.7-1.8,2.68-.59.15,3.7,6.87,1.65,2.71,4.5-5.59a133,133,0,0,1,11.19-11.12,55.61,55.61,0,0,1,9.92-6.39ZM792.09,380a27,27,0,0,0-1.75-4.24,8.62,8.62,0,0,0-1.38,1.93,40.18,40.18,0,0,0-5.58,12.15q-1.39,5.4-.93,7.15a1.25,1.25,0,0,1,.52.81,1.25,1.25,0,0,0,.53.8c.35.53,1.16.43,2.43-.33a26,26,0,0,0,3-4.23l2.57-5.71a32.3,32.3,0,0,0,.95-5.9Z"/><path class="cls-1" d="M875.94,192.34s.23.88.7,2.64a8.17,8.17,0,0,1,.32,2.43,66.42,66.42,0,0,1-2.06,11.22q-1.39,5.38-3.94,13.6-4.05,10.82-5.62,14.36l-4.92,12.28-3.28,7.78-10.33,26.27-10,26.2-7,18.8q-1.29,3.48-2.17,6.06t-1.59,4.66a20.14,20.14,0,0,0-1.18,3.3,10.16,10.16,0,0,1-1,2.63,10.67,10.67,0,0,0-1.06,3.1l-2.41,1.58-4.61,18.17L814,374.81l3.73-7.26q2.65-5.42,8.85-15.22,6-9.42,9.18-12.78,5.37-5.82,8.74-7.33l1.68-.76c1.77-.47,3.88,0,6.35,1.46a11.31,11.31,0,0,1,4.66,6.93,80.72,80.72,0,0,0,2.47,8.14,16.85,16.85,0,0,0,3.68,5.62l.15.58c.47,1.77,0,2.83-1.35,3.19a7.23,7.23,0,0,1-2.88-.18,22.13,22.13,0,0,1-4.36-7l-3.05-8a22.47,22.47,0,0,0-2.57-5,4,4,0,0,0-3.54-.32q-2.36.63-7.07,5.32-2.48,2.53-9,12.12-1.59,2.31-8.72,14.55a165.76,165.76,0,0,0-7.8,16.82,98.14,98.14,0,0,0-5.23,15.83,19.33,19.33,0,0,1-2.21,5.92l-.35,1c-1,3.21-2.16,3.71-3.37,1.52-.69-.23-.84-.82-.46-1.76a11.53,11.53,0,0,1,1.21-8.49L808,388q5.07-17.67,5.75-21l4.33-18.1c-.75-.43-1.38-1.62-1.89-3.58a11.86,11.86,0,0,0,1.28-3.47,34.25,34.25,0,0,1,2.86-5.79l2.3-4.37,8.89-34.06q1.4-5.4,3-10.2l5.34-19,3-8.95,4.67-14.42,4.83-12.58,2.78-7.32,6.55-16.81,5.34-13q1.28-3.48,3.63-4.11a5.23,5.23,0,0,1,2.58.26Zm-7.69,25.58s.38-1.35,1.13-4.07,1.26-4.72,1.54-6.06a28.46,28.46,0,0,0,1.21-8.48q-2.7,2.91-6.56,10.84a177.09,177.09,0,0,0-7.29,16.37l-7.69,19.61-2.12,6.22q-3.57,9.11-5.89,16.94L834,298.56,827.67,321q.78-1.77,2.28-5c1-2.15,2.22-4.87,3.65-8.18q1.64-4.51,5.49-13.69l5-12,10.62-26.35q2.85-7,7.45-20.5l5-14.2C867.9,219,868.25,217.92,868.25,217.92Z"/><path class="cls-1" d="M928.4,316l.54,2.06a5.49,5.49,0,0,1-.19,2.87l-5,3.53c-1.27.76-2.49,1.44-3.69,2.08s-2.32,1.29-3.4,2a50.83,50.83,0,0,1-8.18,4.68q-8,4-8.63,4.16a54.22,54.22,0,0,1-9,2.7l-3,8.95q-2.21,5.92-3.66,7.56a7.85,7.85,0,0,1-5.92,2.51,4.68,4.68,0,0,1-4.69-3.47l-.47-1.76a20.32,20.32,0,0,1-.59-5.81c.24-3.84.53-6.73.84-8.7l.89-4.95a13.87,13.87,0,0,1-2.41-4.38,17,17,0,0,1-.34-8.39,25.38,25.38,0,0,1,4.38-8.38l6-6.93a19.57,19.57,0,0,1,6.93-4.66l1.17-.31q3.53-.93,5.17.52a8.37,8.37,0,0,1,3.29,4.15,14.94,14.94,0,0,1,.38,6.19,25.85,25.85,0,0,1-1.52,7.31,96,96,0,0,0-2.82,9.53l-1.26,4.73a32.19,32.19,0,0,0,4.62-1.53,43.56,43.56,0,0,1,4.28-1.61,17.19,17.19,0,0,0,4.21-1.9l7.6-4.51,6.34-4.51,4.66-3.74Zm-51.32,5.41s-.1.44-.28,1.32a4.9,4.9,0,0,0,0,2.21l.71-2.07,2.64-6.66-.22.37Zm8.34,18.51-.14.67-2.28-.34a11.3,11.3,0,0,1-4.14-1.42v1.25c-.93,3.6-1.26,6.3-1,8.12l.42,4c.29-.5.53-.77.72-.82q1.77-.46,3.69-5.06C884.52,342,885.42,339.91,885.42,339.91ZM890.75,309a4.18,4.18,0,0,1-.77,3l-.64,1.12q-.44.74-2.64,6.65c-.42,1.58-.78,3-1.08,4.22s-.55,2.29-.74,3.17c-.69,2.91-1.09,4.58-1.18,5l-.34,2.28,1,.06a22.5,22.5,0,0,0,3.24.4l2.49-7.25a43.89,43.89,0,0,0,2.3-9.09l.51-6.41c.07-2.1-.15-3.31-.64-3.6l-.37-.22-1-.05Z"/><path class="cls-1" d="M1008.62,264.34l.54,2.05a5.11,5.11,0,0,1-.26,2.58,44.73,44.73,0,0,0-5.51,6.48,65.25,65.25,0,0,0-5.89,11q-6.56,15.56-6,14.14l-5.33,14.28-3.9,11.39a15.21,15.21,0,0,1-4.4,7.13,4.12,4.12,0,0,1-1.68.76q-2.64.69-3.55-1.57a15,15,0,0,1-2.53-7.18l-1.68-9.92a46.39,46.39,0,0,0-2.71-10.27c-1.64-4.59-2.42-6.79-2.37-6.6-.46-.92-1.24-1.14-2.37-.63q-1.4.69-5.45,5.53-3.91,4.17-9.53,13.82L935.94,335a133.7,133.7,0,0,0-7.6,15.19q-2.22,4.68-4.57,5.29a3.24,3.24,0,0,1-2.58-.26c-2.76-.94-3.87-2.74-3.31-5.4l2.58-10.42q1-4.65,3.5-14.11a11.4,11.4,0,0,1,.63-2.36,18.59,18.59,0,0,1,.14-5.38q0-2.5,1.91-11.8a98,98,0,0,1,5-14.5c.66-1.43,1.42-2.94,2.26-4.53s1.66-3.21,2.47-4.89q.52-5.16,3.49-3.43a4.42,4.42,0,0,1,2.87.18c1.24.73,1.94,1.38,2.09,2q.39,1.47-1.34,4.44a47,47,0,0,0-5.89,11q-2.35,5.34-5.47,14.95l-1.63,4.51-.34,2.29a26.71,26.71,0,0,0,1.06,7.57c-.32,2-.86,3.27-1.64,3.89a1.66,1.66,0,0,1-2.44-.3l-2.64,11.37-1,5.61a79.08,79.08,0,0,0,9.18-12.79l10.74-17.59,9.08-14.33q3.9-5.43,7.41-7.61a5.14,5.14,0,0,1,2-.84q2.93-.78,5,2.15a15,15,0,0,1,4.16,8.63q.47,1.75,1,4.44c.36,1.78.69,4,1,6.64l2,9.85.39,1.46,1.59-2.3q1.08-1.86,5.09-10.45L988,299.29q.78-1.77,5.92-14.43a100.52,100.52,0,0,1,5.95-11.94q1.08-1.86,5.2-7.65Z"/></g></g></svg>